# xmcd CD database file
#
# Track frame offsets:
#	225
#	22223
#	43032
#	70828
#	97298
#	116891
#	135532
#	156641
#
# Disc length: 2385 seconds
#
# Revision: 0
# Processed by: cddbd v1.5.1PL0 Copyright (c) Steve Scherf et al.
# Submitted via: ACXtractor (MTCDDB.DLL V2003.12.21)
#
DISCID=7c094e08
DTITLE=Chill Factor - Some Like It Cold
DYEAR=1996
DGENRE=Blues
TTITLE0=Got Love If You Want It
TTITLE1=Tonite the Nite
TTITLE2=Can't Shake This Love
TTITLE3=Quicksand
TTITLE4=If You're Gonna Drink Like That
TTITLE5=Wang Dang Doodle
TTITLE6=Temperature
TTITLE7=Lies
EXTD=ID3G:   0 YEAR: 1996
EXTT0=
EXTT1=
EXTT2=
EXTT3=
EXTT4=
EXTT5=
EXTT6=
EXTT7=
PLAYORDER=
